<svg width="62" height="92" viewBox="0 0 62 92" fill="none" xmlns="http://www.w3.org/2000/svg">
<path d="M31.2 0.900002C30.9 0.900002 30.6 0.900002 30.3 0.900002C18.2 1.3 8.89999 11.6 8.89999 23.7V30.9H8.39999C5.09999 30.9 2.49999 33.5 2.49999 36.8V64.1C2.49999 67.4 5.09999 70 8.39999 70H53.7C57 70 59.6 67.4 59.6 64.1V36.8C59.6 33.5 57 30.9 53.7 30.9H53.5V23.1C53.5 10.9 43.5 0.900002 31.2 0.900002ZM35.4 57.3C35.5 58 35 58.6 34.3 58.6H31H27.7C27 58.6 26.5 58 26.6 57.3L27.9 51.1C26.7 50 25.9 48.4 26.2 46.6C26.5 44.5 28.3 42.8 30.4 42.5C30.6 42.5 30.8 42.5 31 42.5C33.7 42.5 35.9 44.7 35.9 47.4C35.9 48.9 35.2 50.3 34.1 51.2L35.4 57.3ZM43.7 30.9H18.6V23.5C18.6 17 23.4 11.2 29.9 10.6C30.3 10.6 30.7 10.5 31.1 10.5C38 10.5 43.7 16.1 43.7 23.1V30.9V30.9ZM3.49999 85.1C3.99999 84.8 4.49999 84.6 4.89999 84.5C4.69999 84.5 4.39999 84.4 4.19999 84.3C3.99999 84.2 3.69999 84.1 3.49999 83.9L0.799988 82.3L2.09999 80.1L4.79999 81.7C5.29999 82 5.69999 82.3 5.99999 82.6C5.89999 82.2 5.79999 81.7 5.79999 81.2V77.9H8.49999V81.1C8.49999 81.4 8.49999 81.6 8.49999 81.9C8.49999 82.1 8.39999 82.4 8.29999 82.6C8.49999 82.4 8.59999 82.3 8.79999 82.1C8.99999 82 9.19999 81.8 9.39999 81.7L12.1 80.1L13.4 82.3L10.7 83.9C10.5 84 10.2 84.2 9.99999 84.3C9.79999 84.4 9.49999 84.5 9.29999 84.5C9.79999 84.6 10.3 84.8 10.8 85.1L13.5 86.7L12.2 89L9.49999 87.4C8.99999 87.1 8.59999 86.8 8.29999 86.5C8.39999 86.9 8.49999 87.4 8.49999 87.9V91.2H5.79999V88C5.79999 87.7 5.79999 87.5 5.79999 87.2C5.79999 87 5.89999 86.7 5.99999 86.5C5.79999 86.7 5.69999 86.8 5.49999 87C5.29999 87.1 5.09999 87.3 4.89999 87.4L2.19999 89L0.899988 86.8L3.49999 85.1ZM26 84.3C25.8 84.4 25.5 84.5 25.3 84.5C25.8 84.6 26.3 84.8 26.8 85.1L29.5 86.7L28.1 89L25.4 87.4C24.9 87.1 24.5 86.8 24.2 86.5C24.3 86.9 24.4 87.4 24.4 87.9V91.2H21.7V88C21.7 87.7 21.7 87.5 21.7 87.2C21.7 87 21.8 86.7 21.9 86.5C21.7 86.7 21.6 86.8 21.4 87C21.2 87.1 21 87.3 20.8 87.4L18 88.9L16.7 86.7L19.4 85.1C19.9 84.8 20.4 84.6 20.8 84.5C20.6 84.5 20.3 84.4 20.1 84.3C19.9 84.2 19.6 84.1 19.4 83.9L16.7 82.3L18 80.1L20.7 81.7C21.2 82 21.6 82.3 21.9 82.6C21.8 82.2 21.7 81.7 21.7 81.2V77.9H24.4V81.1C24.4 81.4 24.4 81.6 24.4 81.9C24.4 82.1 24.3 82.4 24.2 82.6C24.4 82.4 24.5 82.3 24.7 82.1C24.9 82 25.1 81.8 25.3 81.7L28 80.1L29.3 82.3L26.6 83.9C26.5 84.1 26.2 84.2 26 84.3ZM41.9 84.3C41.7 84.4 41.4 84.5 41.2 84.5C41.7 84.6 42.2 84.8 42.7 85.1L45.4 86.7L44 89L41.3 87.4C40.8 87.1 40.4 86.8 40.1 86.5C40.2 86.9 40.3 87.4 40.3 87.9V91.2H37.6V88C37.6 87.7 37.6 87.5 37.6 87.2C37.6 87 37.7 86.7 37.8 86.5C37.6 86.7 37.5 86.8 37.3 87C37.1 87.1 36.9 87.3 36.7 87.4L34 89L32.7 86.8L35.4 85.2C35.9 84.9 36.4 84.7 36.8 84.6C36.6 84.6 36.3 84.5 36.1 84.4C35.9 84.3 35.6 84.2 35.4 84L32.7 82.4L34 80.2L36.7 81.8C37.2 82.1 37.6 82.4 37.9 82.7C37.8 82.3 37.7 81.8 37.7 81.3V78H40.4V81.2C40.4 81.5 40.4 81.7 40.4 82C40.4 82.2 40.3 82.5 40.2 82.7C40.4 82.5 40.5 82.4 40.7 82.2C40.9 82.1 41.1 81.9 41.3 81.8L44 80.2L45.3 82.4L42.6 84C42.4 84.1 42.1 84.2 41.9 84.3ZM57.8 84.3C57.6 84.4 57.3 84.5 57.1 84.5C57.6 84.6 58.1 84.8 58.6 85.1L61.3 86.7L59.9 89L57.2 87.4C56.7 87.1 56.3 86.8 56 86.5C56.1 86.9 56.2 87.4 56.2 87.9V91.2H53.5V88C53.5 87.7 53.5 87.5 53.5 87.2C53.5 87 53.6 86.7 53.7 86.5C53.5 86.7 53.4 86.8 53.2 87C53 87.1 52.8 87.3 52.6 87.4L49.9 89L48.6 86.8L51.3 85.2C51.8 84.9 52.3 84.7 52.7 84.6C52.5 84.6 52.2 84.5 52 84.4C51.8 84.3 51.5 84.2 51.3 84L48.6 82.4L49.9 80.2L52.6 81.8C53.1 82.1 53.5 82.4 53.8 82.7C53.7 82.3 53.6 81.8 53.6 81.3V78H56.3V81.2C56.3 81.5 56.3 81.7 56.3 82C56.3 82.2 56.2 82.5 56.1 82.7C56.3 82.5 56.4 82.4 56.6 82.2C56.8 82.1 57 81.9 57.2 81.8L59.9 80.2L61.2 82.4L58.5 84C58.3 84.1 58 84.2 57.8 84.3Z" fill="white"/>
</svg>
